<svg id="图层_1" xmlns="http://www.w3.org/2000/svg" viewBox="0 0 372.73 224.87">
        <defs>
            <style>
                .a {
                    font-size: 3.53px;
                }

                .a,
                .c,
                .g {
                    font-family: SimSun;
                }

                .b,
                .d,
                .e,
                .f,
                .h,
                .i,
                .j,
                .k,
                .l,
                .m,
                .n,
                .o,
                .p,
                .q,
                .r {
                    fill: none;
                    stroke-linecap: round;
                    stroke-linejoin: round;
                }

                .b {
                    stroke: lime;
                }

                .b,
                .m {
                    stroke-width: 0.5px;
                }

                .c {
                    font-size: 4.24px;
                }

                .d,
                .e,
                .f,
                .h,
                .i,
                .j,
                .k,
                .l,
                .m,
                .n,
                .o,
                .p,
                .q {
                    stroke: #000;
                }

                .d {
                    stroke-width: 0.2px;
                }

                .e,
                .o {
                    stroke-width: 0.19px;
                }

                .f {
                    stroke-width: 0.71px;
                }

                .g {
                    font-size: 3.36px;
                }

                .h,
                .r {
                    stroke-width: 0.71px;
                }

                .i {
                    stroke-width: 0.19px;
                }

                .j {
                    stroke-width: 0.2px;
                }

                .k {
                    stroke-width: 0.75px;
                }

                .l {
                    stroke-width: 0.48px;
                }

                .n {
                    stroke-width: 0.19px;
                }

                .o {
                    stroke-dasharray: 1 0.5;
                }

                .p {
                    stroke-width: 0.37px;
                }

                .q {
                    stroke-width: 0.2px;
                }

                .r {
                    stroke: #f4ee51;
                }
            </style>
        </defs>
        <text class="a" transform="translate(140.94 31.07) scale(0.8 1)">站台门设备室</text>
        <polygon class="b" points="133.69 26.06 171.75 26.06 171.76 129.21 133.69 129.21 133.69 26.06"/>
        <polyline class="b" points="125.82 129.12 125.82 25.89 97.38 25.89 97.36 129.12" id="2002" operational="false"/>
        <text class="a" transform="translate(103.65 30.89) scale(0.8 1)">防雷分线柜</text>
        <text class="c" transform="translate(158.5 50.33) scale(0.8 1)">LF24</text>
        <text class="a" transform="translate(160.67 69.21) scale(0.8 1)">SKMD</text>
        <text class="c" transform="translate(157.93 44.01) scale(0.8 1)">LZ24</text>
        <text class="a" transform="translate(64.88 59.17) scale(0.8 1)">SKMJ</text>
        <text class="a" transform="translate(64.88 71.53) scale(0.8 1)">SKMJ</text>
        <line class="b" x1="57.74" y1="26.5" x2="57.74" y2="33.13" id="2009" operational="false"/>
        <line class="b" x1="57.74" y1="33.13" x2="87.13" y2="33.13" id="2010" operational="false"/>
        <line class="b" x1="97.37" y1="33.13" x2="125.82" y2="33.13" id="2011" operational="false"/>
        <line class="b" x1="133.69" y1="33.13" x2="171.75" y2="33.13" id="2012" operational="false"/>
        <line class="b" x1="71.23" y1="26.5" x2="71.23" y2="33.13" id="2013" operational="false"/>
        <line class="b" x1="26.76" y1="26.5" x2="26.76" y2="35.42" id="2014" operational="false"/>
        <text class="a" transform="translate(61.48 30.93) scale(0.8 1)">PSD</text>
        <text class="a" transform="translate(75.81 31.08) scale(0.8 1)">Z4-5</text>
        <text class="a" transform="translate(159.79 97.03) scale(0.8 1)">SGMD</text>
        <text class="a" transform="translate(155.77 92.09) scale(0.8 1)">1</text>
        <text class="a" transform="translate(155.77 102.31) scale(0.8 1)">2</text>
        <text class="a" transform="translate(64.87 87.83) scale(0.8 1)">SGMJ</text>
        <text class="a" transform="translate(64.87 99.81) scale(0.8 1)">SGMJ</text>
        <text class="a" transform="translate(62.24 64.64) scale(0.8 1)">1</text>
        <text class="a" transform="translate(62.24 77.18) scale(0.8 1)">2</text>
        <text class="a" transform="translate(62.23 92.92) scale(0.8 1)">1</text>
        <text class="a" transform="translate(62.23 105.46) scale(0.8 1)">2</text>
        <text class="a" transform="translate(76.32 40.54) scale(0.8 1)">06-11</text>
        <text class="a" transform="translate(76.32 46.76) scale(0.8 1)">06-12</text>
        <text class="a" transform="translate(76.32 59.6) scale(0.8 1)">05-1</text>
        <text class="a" transform="translate(76.32 71.97) scale(0.8 1)">05-2</text>
        <text class="a" transform="translate(76.32 87.89) scale(0.8 1)">05-3</text>
        <text class="a" transform="translate(76.32 100.26) scale(0.8 1)">05-4</text>
        <circle class="d" cx="154.97" cy="67.75" r="3.5"/>
        <circle class="d" cx="154.96" cy="96.03" r="3.5"/>
        <text class="a" transform="translate(155.78 63.81) scale(0.8 1)">1</text>
        <text class="a" transform="translate(155.78 74.02) scale(0.8 1)">2</text>
        <text class="a" transform="translate(107.3 59.6) scale(0.8 1)">F-415</text>
        <text class="a" transform="translate(107.3 71.97) scale(0.8 1)">F-416</text>
        <text class="a" transform="translate(107.3 87.89) scale(0.8 1)">F-417</text>
        <text class="a" transform="translate(107.3 100.26) scale(0.8 1)">F-418</text>
        <text class="a" transform="translate(42.21 59.64) scale(0.8 1)">SGMJ</text>
        <text class="a" transform="translate(47.9 71.49) scale(0.8 1)">SGMJ</text>
        <text class="a" transform="translate(39.57 64.73) scale(0.8 1)">5</text>
        <text class="a" transform="translate(45.26 77.14) scale(0.8 1)">6</text>
        <text class="a" transform="translate(107.3 40.55) scale(0.8 1)">F-413</text>
        <text class="a" transform="translate(107.3 47.29) scale(0.8 1)">F-414</text>
        <text class="a" transform="translate(138.55 40.55) scale(0.8 1)">04-1</text>
        <text class="a" transform="translate(138.55 47.33) scale(0.8 1)">04-2</text>
        <text class="a" transform="translate(138.55 59.75) scale(0.8 1)">04-3</text>
        <text class="a" transform="translate(138.55 72.16) scale(0.8 1)">04-4</text>
        <text class="a" transform="translate(138.55 87.41) scale(0.8 1)">04-5</text>
        <text class="a" transform="translate(138.55 99.9) scale(0.8 1)">04-6</text>
        <line class="b" x1="97.36" y1="129.02" x2="125.82" y2="129.02" id="2052" operational="false"/>
        <line class="b" x1="26.76" y1="129.32" x2="87.13" y2="129.32" id="2053" operational="false"/>
        <line class="e" x1="270.94" y1="43.4" x2="269.04" y2="45.3" id="2054" operational="false"/>
        <circle class="f" cx="269.99" cy="44.35" r="0.36"/>
        <text class="g" transform="translate(215.12 75.96) scale(0.8 1)">SGSJ</text>
        <text class="g" transform="translate(205.3 54.58) scale(0.8 1)">LF24(2)</text>
        <text class="g" transform="translate(205.3 45.27) scale(0.8 1)">LZ24(2)</text>
        <line class="e" x1="231.26" y1="43.4" x2="229.35" y2="45.3" id="2059" operational="false"/>
        <circle class="f" cx="230.3" cy="44.35" r="0.36"/>
        <line class="e" x1="231.26" y1="52.59" x2="229.35" y2="54.49" id="2061" operational="false"/>
        <circle class="f" cx="230.3" cy="53.54" r="0.36"/>
        <text class="g" transform="translate(214.64 110.08) scale(0.8 1)">SPLJ</text>
        <line class="e" x1="270.94" y1="67.17" x2="269.04" y2="69.07" id="2064" operational="false"/>
        <circle class="f" cx="269.99" cy="68.12" r="0.36"/>
        <line class="e" x1="270.94" y1="82.79" x2="269.04" y2="84.69" id="2066" operational="false"/>
        <circle class="f" cx="269.99" cy="83.74" r="0.36"/>
        <line class="e" x1="270.94" y1="52.59" x2="269.04" y2="54.49" id="2068" operational="false"/>
        <circle class="f" cx="269.99" cy="53.54" r="0.36"/>
        <line class="e" x1="270.94" y1="100.96" x2="269.04" y2="102.86" id="2070" operational="false"/>
        <circle class="f" cx="269.99" cy="101.91" r="0.36"/>
        <line class="e" x1="270.94" y1="116.58" x2="269.04" y2="118.48" id="2072" operational="false"/>
        <circle class="f" cx="269.99" cy="117.53" r="0.36"/>
        <text class="g" transform="translate(322.49 115.69) scale(0.8 1)">SPLJ</text>
        <circle class="h" cx="322.59" cy="117.55" r="0.8"/>
        <circle class="h" cx="324.99" cy="120.74" r="0.8"/>
        <circle class="h" cx="328.98" cy="117.55" r="0.8"/>
        <line class="h" x1="328.39" y1="118.09" x2="325.62" y2="120.27" id="2078" operational="false"/>
        <line class="e" x1="323.4" y1="117.58" x2="325.08" y2="117.58" id="2079" operational="false"/>
        <line class="e" x1="326.51" y1="117.58" x2="328.2" y2="117.58" id="2080" operational="false"/>
        <text class="g" transform="translate(315.89 30.78) scale(0.8 1)">站台门设备室</text>
        <text class="g" transform="translate(263.28 30.97) scale(0.8 1)">防雷分线柜</text>
        <text class="g" transform="translate(203.82 30.91) scale(0.8 1)">Z4-4</text>
        <line class="h" x1="215.55" y1="26.06" x2="215.55" y2="26.06" id="2084" operational="false"/>
        <text class="g" transform="translate(189.48 30.95) scale(0.8 1)">PSD</text>
        <text class="g" transform="translate(224.95 42.51) scale(0.8 1)">F-317</text>
        <text class="g" transform="translate(224.95 51.75) scale(0.8 1)">F-318</text>
        <text class="g" transform="translate(322.49 100.07) scale(0.8 1)">SPLJ</text>
        <circle class="h" cx="322.59" cy="101.93" r="0.8"/>
        <circle class="h" cx="324.99" cy="105.12" r="0.8"/>
        <circle class="h" cx="328.98" cy="101.93" r="0.8"/>
        <line class="h" x1="328.39" y1="102.47" x2="325.62" y2="104.65" id="2092" operational="false"/>
        <line class="e" x1="323.4" y1="101.96" x2="325.08" y2="101.96" id="2093" operational="false"/>
        <line class="e" x1="326.51" y1="101.96" x2="328.2" y2="101.96" id="2094" operational="false"/>
        <line class="e" x1="231.29" y1="67.17" x2="229.39" y2="69.07" id="2095" operational="false"/>
        <circle class="f" cx="230.34" cy="68.12" r="0.36"/>
        <line class="e" x1="231.29" y1="82.79" x2="229.39" y2="84.69" id="2097" operational="false"/>
        <circle class="f" cx="230.34" cy="83.74" r="0.36"/>
        <line class="e" x1="231.29" y1="100.96" x2="229.39" y2="102.86" id="2099" operational="false"/>
        <circle class="f" cx="230.34" cy="101.91" r="0.36"/>
        <line class="e" x1="231.29" y1="116.58" x2="229.39" y2="118.48" id="2101" operational="false"/>
        <circle class="f" cx="230.34" cy="117.53" r="0.36"/>
        <text class="g" transform="translate(227.87 81.68) scale(0.8 1)">05-6</text>
        <line class="e" x1="231.29" y1="67.17" x2="229.39" y2="69.07" id="2104" operational="false"/>
        <circle class="f" cx="230.34" cy="68.12" r="0.36"/>
        <line class="e" x1="231.29" y1="82.79" x2="229.39" y2="84.69" id="2106" operational="false"/>
        <circle class="f" cx="230.34" cy="83.74" r="0.36"/>
        <line class="e" x1="231.29" y1="100.96" x2="229.39" y2="102.86" id="2108" operational="false"/>
        <circle class="f" cx="230.34" cy="101.91" r="0.36"/>
        <line class="e" x1="231.29" y1="116.58" x2="229.39" y2="118.48" id="2110" operational="false"/>
        <circle class="f" cx="230.34" cy="117.53" r="0.36"/>
        <text class="g" transform="translate(227.87 66.67) scale(0.8 1)">05-5</text>
        <text class="g" transform="translate(227.86 100.17) scale(0.8 1)">05-7</text>
        <text class="g" transform="translate(227.86 115.31) scale(0.8 1)">05-8</text>
        <text class="g" transform="translate(266.56 42.51) scale(0.8 1)">F-407</text>
        <text class="g" transform="translate(266.56 51.39) scale(0.8 1)">F-408</text>
        <text class="g" transform="translate(266.56 65.97) scale(0.8 1)">F-409</text>
        <text class="g" transform="translate(266.56 81.59) scale(0.8 1)">F-410</text>
        <text class="g" transform="translate(266.56 99.77) scale(0.8 1)">F-411</text>
        <text class="g" transform="translate(266.56 115.39) scale(0.8 1)">F-412</text>
        <text class="g" transform="translate(305.14 42.51) scale(0.8 1)">04-7</text>
        <text class="g" transform="translate(305.14 51.95) scale(0.8 1)">04-8</text>
        <text class="g" transform="translate(305.14 66.26) scale(0.8 1)">04-9</text>
        <text class="g" transform="translate(305.14 81.84) scale(0.8 1)">04-10</text>
        <text class="g" transform="translate(305.14 99.77) scale(0.8 1)">04-11</text>
        <text class="g" transform="translate(305.01 115.02) scale(0.8 1)">04-12</text>
        <text class="a" transform="translate(104.44 165.52) scale(0.8 1)">SKMJ</text>
        <text class="a" transform="translate(111.24 169.28) scale(0.8 1)">4</text>
        <text class="a" transform="translate(102.49 169.31) scale(0.8 1)">1</text>
        <circle class="d" cx="107.46" cy="170.46" r="3.5"/>
        <text class="a" transform="translate(104.44 183.87) scale(0.8 1)">SGMJ</text>
        <text class="a" transform="translate(111.24 187.62) scale(0.8 1)">4</text>
        <text class="a" transform="translate(102.49 187.66) scale(0.8 1)">1</text>
        <circle class="d" cx="107.46" cy="188.81" r="3.5"/>
        <text class="a" transform="translate(154.28 68.78) scale(0.8 1)">H</text>
        <text class="a" transform="translate(154.26 97.22) scale(0.8 1)">H</text>
        <text class="g" transform="translate(328.61 106.92) scale(0.8 1)">1</text>
        <text class="g" transform="translate(328.47 122.29) scale(0.8 1)">2</text>
        <line class="i" x1="107.43" y1="176.45" x2="107.43" y2="175.03" id="2139" operational="false"/>
        <polygon points="107.91 176.46 106.96 176.46 107.43 178.83 107.43 178.83 107.91 176.46"/>
        <line class="i" x1="107.55" y1="196.6" x2="107.55" y2="198.03" id="2141" operational="false"/>
        <polygon points="107.08 196.6 108.03 196.6 107.55 194.23 107.55 194.23 107.08 196.6"/>
        <line class="i" x1="48.57" y1="66.71" x2="48.57" y2="68.13" id="2143" operational="false"/>
        <polygon points="48.1 66.71 49.05 66.71 48.57 64.33 48.57 64.33 48.1 66.71"/>
        <line class="i" x1="54.15" y1="79.27" x2="54.15" y2="80.69" id="2145" operational="false"/>
        <polygon points="53.67 79.27 54.62 79.27 54.15 76.89 54.15 76.89 53.67 79.27"/>
        <line class="i" x1="71.08" y1="94.98" x2="71.08" y2="96.41" id="2147" operational="false"/>
        <polygon points="70.6 94.98 71.55 94.98 71.08 92.61 71.08 92.61 70.6 94.98"/>
        <line class="i" x1="71.08" y1="107.44" x2="71.08" y2="108.87" id="2149" operational="false"/>
        <polygon points="70.6 107.44 71.55 107.44 71.08 105.06 71.08 105.06 70.6 107.44"/>
        <line class="i" x1="71.02" y1="77.53" x2="71.02" y2="76.1" id="2151" operational="false"/>
        <polygon points="71.5 77.53 70.54 77.53 71.02 79.91 71.02 79.91 71.5 77.53"/>
        <line class="i" x1="71.18" y1="64.83" x2="71.18" y2="63.41" id="2153" operational="false"/>
        <polygon points="71.66 64.83 70.71 64.83 71.18 67.21 71.18 67.21 71.66 64.83"/>
        <line class="i" x1="202.88" y1="109.46" x2="202.88" y2="108.03" id="2155" operational="false"/>
        <polygon points="203.36 109.46 202.41 109.46 202.88 111.83 202.88 111.83 203.36 109.46"/>
        <line class="i" x1="202.98" y1="77.33" x2="202.98" y2="78.75" id="2157" operational="false"/>
        <polygon points="202.51 77.33 203.46 77.33 202.98 74.95 202.98 74.95 202.51 77.33"/>
        <line class="b" x1="26.76" y1="26.5" x2="87.13" y2="26.5" id="2159" operational="false"/>
        <polygon points="153.19 48.27 153.19 49.27 156.19 48.77 156.19 48.77 153.19 48.27"/>
        <line class="j" x1="153.23" y1="42.54" x2="155.5" y2="43.5" id="2161" operational="false"/>
        <line class="j" x1="153.23" y1="42.54" x2="155.5" y2="41.58" id="2162" operational="false"/>
        <circle class="k" cx="79.64" cy="48.75" r="0.38"/>
        <line class="j" x1="80.64" y1="47.75" x2="78.64" y2="49.75" id="2164" operational="false"/>
        <circle class="k" cx="79.64" cy="61.59" r="0.38"/>
        <line class="j" x1="80.64" y1="60.59" x2="78.64" y2="62.59" id="2166" operational="false"/>
        <circle class="k" cx="79.55" cy="73.97" r="0.38"/>
        <line class="j" x1="80.55" y1="72.97" x2="78.55" y2="74.97" id="2168" operational="false"/>
        <circle class="k" cx="110.93" cy="48.75" r="0.38"/>
        <line class="j" x1="111.93" y1="47.75" x2="109.93" y2="49.75" id="2170" operational="false"/>
        <circle class="k" cx="110.93" cy="61.59" r="0.38"/>
        <line class="j" x1="111.93" y1="60.59" x2="109.93" y2="62.59" id="2172" operational="false"/>
        <circle class="k" cx="110.85" cy="73.97" r="0.38"/>
        <line class="j" x1="111.85" y1="72.97" x2="109.85" y2="74.97" id="2174" operational="false"/>
        <circle class="k" cx="141.88" cy="48.66" r="0.38"/>
        <line class="j" x1="142.88" y1="47.66" x2="140.88" y2="49.66" id="2176" operational="false"/>
        <line class="b" x1="26.76" y1="26.5" x2="26.76" y2="129.42" id="2177" operational="false"/>
        <line class="b" x1="87.13" y1="26.5" x2="87.13" y2="129.42" id="2178" operational="false"/>
        <circle class="k" cx="79.64" cy="42.54" r="0.38"/>
        <line class="j" x1="80.64" y1="41.54" x2="78.64" y2="43.54" id="2180" operational="false"/>
        <circle class="k" cx="110.89" cy="42.6" r="0.38"/>
        <line class="j" x1="111.89" y1="41.6" x2="109.89" y2="43.6" id="2182" operational="false"/>
        <circle class="h" cx="71.12" cy="61.6" r="0.84"/>
        <circle class="h" cx="68.6" cy="64.96" r="0.84"/>
        <circle class="h" cx="64.4" cy="61.6" r="0.84"/>
        <line class="l" x1="65.06" y1="62.13" x2="67.95" y2="64.44" id="2186" operational="false"/>
        <line class="j" x1="70.28" y1="61.6" x2="68.72" y2="61.6" id="2187" operational="false"/>
        <line class="j" x1="66.69" y1="61.6" x2="65.24" y2="61.6" id="2188" operational="false"/>
        <circle class="h" cx="71.04" cy="73.99" r="0.84"/>
        <circle class="h" cx="68.52" cy="77.35" r="0.84"/>
        <circle class="h" cx="64.32" cy="73.99" r="0.84"/>
        <line class="l" x1="64.97" y1="74.51" x2="67.86" y2="76.82" id="2192" operational="false"/>
        <line class="j" x1="70.2" y1="73.99" x2="68.63" y2="73.99" id="2193" operational="false"/>
        <line class="j" x1="66.6" y1="73.99" x2="65.16" y2="73.99" id="2194" operational="false"/>
        <circle class="k" cx="79.63" cy="89.88" r="0.38"/>
        <line class="j" x1="80.63" y1="88.88" x2="78.63" y2="90.88" id="2196" operational="false"/>
        <circle class="k" cx="79.54" cy="102.25" r="0.38"/>
        <line class="j" x1="80.54" y1="101.25" x2="78.54" y2="103.25" id="2198" operational="false"/>
        <circle class="k" cx="110.92" cy="89.88" r="0.38"/>
        <line class="j" x1="111.92" y1="88.88" x2="109.92" y2="90.88" id="2200" operational="false"/>
        <circle class="k" cx="110.84" cy="102.25" r="0.38"/>
        <line class="j" x1="111.84" y1="101.25" x2="109.84" y2="103.25" id="2202" operational="false"/>
        <circle class="h" cx="71.05" cy="102.25" r="0.84"/>
        <circle class="h" cx="68.53" cy="105.61" r="0.84"/>
        <circle class="h" cx="64.33" cy="102.25" r="0.84"/>
        <line class="j" x1="65.97" y1="103.72" x2="64.96" y2="102.86" id="2206" operational="false"/>
        <line class="j" x1="67.75" y1="105.25" x2="66.74" y2="104.4" id="2207" operational="false"/>
        <line class="m" x1="65.17" y1="102.25" x2="70.21" y2="102.25" id="2208" operational="false"/>
        <circle class="h" cx="71.15" cy="89.72" r="0.84"/>
        <circle class="h" cx="68.63" cy="93.08" r="0.84"/>
        <circle class="h" cx="64.43" cy="89.72" r="0.84"/>
        <line class="j" x1="66.08" y1="91.18" x2="65.07" y2="90.32" id="2212" operational="false"/>
        <line class="j" x1="67.85" y1="92.72" x2="66.84" y2="91.86" id="2213" operational="false"/>
        <line class="m" x1="65.27" y1="89.71" x2="70.31" y2="89.71" id="2214" operational="false"/>
        <circle class="k" cx="141.88" cy="42.45" r="0.38"/>
        <line class="j" x1="142.88" y1="41.45" x2="140.88" y2="43.45" id="2216" operational="false"/>
        <circle class="k" cx="141.88" cy="61.5" r="0.38"/>
        <line class="j" x1="142.88" y1="60.5" x2="140.88" y2="62.5" id="2218" operational="false"/>
        <circle class="k" cx="141.88" cy="73.88" r="0.38"/>
        <line class="j" x1="142.88" y1="72.88" x2="140.88" y2="74.88" id="2220" operational="false"/>
        <circle class="k" cx="141.88" cy="89.79" r="0.38"/>
        <line class="j" x1="142.88" y1="88.79" x2="140.88" y2="90.79" id="2222" operational="false"/>
        <circle class="k" cx="141.88" cy="102.16" r="0.38"/>
        <line class="j" x1="142.88" y1="101.16" x2="140.88" y2="103.16" id="2224" operational="false"/>
        <circle class="h" cx="54.08" cy="73.99" r="0.84"/>
        <circle class="h" cx="51.56" cy="77.35" r="0.84"/>
        <circle class="h" cx="47.36" cy="73.99" r="0.84"/>
        <line class="l" x1="48.01" y1="74.51" x2="50.9" y2="76.82" id="2228" operational="false"/>
        <line class="j" x1="53.24" y1="73.99" x2="51.67" y2="73.99" id="2229" operational="false"/>
        <line class="j" x1="49.64" y1="73.99" x2="48.2" y2="73.99" id="2230" operational="false"/>
        <circle class="h" cx="48.49" cy="61.64" r="0.84"/>
        <circle class="h" cx="45.97" cy="65" r="0.84"/>
        <circle class="h" cx="41.77" cy="61.64" r="0.84"/>
        <line class="l" x1="42.43" y1="62.16" x2="45.32" y2="64.47" id="2234" operational="false"/>
        <line class="j" x1="47.65" y1="61.64" x2="46.09" y2="61.64" id="2235" operational="false"/>
        <line class="j" x1="44.06" y1="61.64" x2="42.61" y2="61.64" id="2236" operational="false"/>
        <circle class="k" cx="141.88" cy="48.66" r="0.38"/>
        <line class="j" x1="142.88" y1="47.66" x2="140.88" y2="49.66" id="2238" operational="false"/>
        <circle class="k" cx="141.88" cy="42.45" r="0.38"/>
        <line class="j" x1="142.88" y1="41.45" x2="140.88" y2="43.45" id="2240" operational="false"/>
        <circle class="k" cx="141.88" cy="61.5" r="0.38"/>
        <line class="j" x1="142.88" y1="60.5" x2="140.88" y2="62.5" id="2242" operational="false"/>
        <circle class="k" cx="141.88" cy="73.88" r="0.38"/>
        <line class="j" x1="142.88" y1="72.88" x2="140.88" y2="74.88" id="2244" operational="false"/>
        <circle class="k" cx="141.88" cy="89.79" r="0.38"/>
        <line class="j" x1="142.88" y1="88.79" x2="140.88" y2="90.79" id="2246" operational="false"/>
        <circle class="k" cx="141.88" cy="102.16" r="0.38"/>
        <line class="j" x1="142.88" y1="101.16" x2="140.88" y2="103.16" id="2248" operational="false"/>
        <circle class="n" cx="209.95" cy="75.92" r="3.33"/>
        <text class="g" transform="translate(207.89 71.97) scale(0.8 1)">1</text>
        <text class="g" transform="translate(207.54 81.63) scale(0.8 1)">4</text>
        <line class="e" x1="217.55" y1="44.35" x2="215.39" y2="43.44" id="2252" operational="false"/>
        <line class="e" x1="217.55" y1="44.35" x2="215.39" y2="45.27" id="2253" operational="false"/>
        <polygon points="217.57 53.06 217.57 54.01 214.71 53.54 214.71 53.54 217.57 53.06"/>
        <rect class="b" x="302.42" y="26.06" width="48.44" height="120.76"/>
        <circle class="n" cx="209.95" cy="109.72" r="3.33"/>
        <text class="g" transform="translate(207.89 105.77) scale(0.8 1)">1</text>
        <text class="g" transform="translate(207.54 115.42) scale(0.8 1)">4</text>
        <rect class="b" x="256.94" y="26.2" width="29.37" height="120.68"/>
        <line class="e" x1="309.19" y1="43.4" x2="307.29" y2="45.31" id="2260" operational="false"/>
        <circle class="f" cx="308.24" cy="44.35" r="0.36"/>
        <line class="e" x1="309.19" y1="67.17" x2="307.29" y2="69.07" id="2262" operational="false"/>
        <circle class="f" cx="308.24" cy="68.12" r="0.36"/>
        <line class="e" x1="309.19" y1="52.59" x2="307.29" y2="54.49" id="2264" operational="false"/>
        <circle class="f" cx="308.24" cy="53.54" r="0.36"/>
        <line class="e" x1="309.19" y1="82.79" x2="307.29" y2="84.69" id="2266" operational="false"/>
        <circle class="f" cx="308.24" cy="83.74" r="0.36"/>
        <line class="e" x1="309.19" y1="100.96" x2="307.29" y2="102.86" id="2268" operational="false"/>
        <circle class="f" cx="308.24" cy="101.91" r="0.36"/>
        <line class="o" x1="309.19" y1="116.58" x2="307.29" y2="118.48" id="2270" operational="false"/>
        <circle class="f" cx="308.24" cy="117.53" r="0.36"/>
        <line class="b" x1="186.21" y1="32.63" x2="212.01" y2="32.63" id="2272" operational="false"/>
        <line class="b" x1="256.94" y1="33.15" x2="286.31" y2="33.15" id="2273" operational="false"/>
        <line class="b" x1="302.42" y1="33.15" x2="350.85" y2="33.15" id="2274" operational="false"/>
        <line class="b" x1="199.14" y1="26.06" x2="199.14" y2="32.62" id="2275" operational="false"/>
        <line class="b" x1="212.01" y1="26.06" x2="212.01" y2="32.63" id="2276" operational="false"/>
        <rect class="b" x="186.27" y="26.06" width="59.3" height="120.76"/>
        <line class="e" x1="309.19" y1="43.4" x2="307.29" y2="45.31" id="2278" operational="false"/>
        <circle class="f" cx="308.24" cy="44.35" r="0.36"/>
        <line class="e" x1="309.19" y1="67.17" x2="307.29" y2="69.07" id="2280" operational="false"/>
        <circle class="f" cx="308.24" cy="68.12" r="0.36"/>
        <line class="e" x1="309.19" y1="52.59" x2="307.29" y2="54.49" id="2282" operational="false"/>
        <circle class="f" cx="308.24" cy="53.54" r="0.36"/>
        <line class="e" x1="309.19" y1="82.79" x2="307.29" y2="84.69" id="2284" operational="false"/>
        <circle class="f" cx="308.24" cy="83.74" r="0.36"/>
        <line class="e" x1="309.19" y1="100.96" x2="307.29" y2="102.86" id="2286" operational="false"/>
        <circle class="f" cx="308.24" cy="101.91" r="0.36"/>
        <line class="o" x1="309.19" y1="116.58" x2="307.29" y2="118.48" id="2288" operational="false"/>
        <circle class="f" cx="308.24" cy="117.53" r="0.36"/>
        <line class="p" x1="153.23" y1="42.54" x2="142.24" y2="42.54" id="2290" operational="false"/>
        <line class="p" x1="142.24" y1="42.54" x2="111.26" y2="42.54" id="2291" operational="false"/>
        <line class="p" x1="111.26" y1="42.54" x2="80.01" y2="42.54" id="2292" operational="false"/>
        <line class="p" x1="49.33" y1="61.62" x2="63.56" y2="61.62" id="2293" operational="false"/>
        <line class="p" x1="71.96" y1="61.59" x2="79.26" y2="61.59" id="2294" operational="false"/>
        <line class="p" x1="79.26" y1="61.59" x2="110.93" y2="61.59" id="2295" operational="false"/>
        <line class="p" x1="110.93" y1="61.59" x2="141.52" y2="61.59" id="2296" operational="false"/>
        <line class="p" x1="142.26" y1="73.97" x2="110.85" y2="73.97" id="2297" operational="false"/>
        <line class="p" x1="110.85" y1="73.97" x2="79.55" y2="73.97" id="2298" operational="false"/>
        <line class="p" x1="79.55" y1="73.97" x2="71.88" y2="73.97" id="2299" operational="false"/>
        <line class="p" x1="63.48" y1="73.97" x2="54.92" y2="73.97" id="2300" operational="false"/>
        <line class="p" x1="79.26" y1="48.75" x2="110.56" y2="48.75" id="2301" operational="false"/>
        <line class="p" x1="110.56" y1="48.75" x2="141.52" y2="48.75" id="2302" operational="false"/>
        <line class="p" x1="141.52" y1="48.75" x2="153.19" y2="48.75" id="2303" operational="false"/>
        <line class="p" x1="71.95" y1="89.88" x2="79.25" y2="89.88" id="2304" operational="false"/>
        <line class="p" x1="79.25" y1="89.88" x2="110.55" y2="89.88" id="2305" operational="false"/>
        <line class="p" x1="110.55" y1="89.88" x2="141.52" y2="89.88" id="2306" operational="false"/>
        <line class="p" x1="142.47" y1="102.25" x2="111.21" y2="102.25" id="2307" operational="false"/>
        <line class="p" x1="111.21" y1="102.25" x2="79.92" y2="102.25" id="2308" operational="false"/>
        <line class="p" x1="79.92" y1="102.25" x2="71.87" y2="102.25" id="2309" operational="false"/>
        <polyline class="p" points="141.52 61.59 154.96 61.59 154.96 64.25" id="2310" operational="false"/>
        <polyline class="p" points="154.96 71.25 154.96 73.97 142.25 73.97" id="2311" operational="false"/>
        <polyline class="p" points="141.52 89.88 154.96 89.88 154.96 92.53" id="2312" operational="false"/>
        <polyline class="p" points="154.96 99.53 154.96 102.25 142.47 102.25" id="2313" operational="false"/>
        <polyline class="p" points="80.01 42.54 30.74 42.54 30.74 61.61 40.93 61.62" id="2314" operational="false"/>
        <circle class="p" cx="80.85" cy="170.47" r="0.84"/>
        <circle class="p" cx="78.33" cy="173.83" r="0.84"/>
        <circle class="p" cx="74.13" cy="170.47" r="0.84"/>
        <line class="l" x1="74.79" y1="171" x2="77.68" y2="173.31" id="2318" operational="false"/>
        <line class="j" x1="80.01" y1="170.47" x2="78.45" y2="170.47" id="2319" operational="false"/>
        <line class="j" x1="76.42" y1="170.47" x2="74.97" y2="170.47" id="2320" operational="false"/>
        <text class="a" transform="translate(73.39 174.75) scale(0.8 1)">1</text>
        <text class="a" transform="translate(74.62 168.24) scale(0.8 1)">SKMA</text>
        <line class="j" x1="82.81" y1="172.49" x2="81.24" y2="172.49" id="2323" operational="false"/>
        <line class="j" x1="82.03" y1="174.06" x2="82.03" y2="172.49" id="2324" operational="false"/>
        <line class="j" x1="103.96" y1="170.46" x2="81.69" y2="170.47" id="2325" operational="false"/>
        <line class="j" x1="57.51" y1="170.5" x2="55.23" y2="171.46" id="2326" operational="false"/>
        <line class="j" x1="57.51" y1="170.5" x2="55.23" y2="169.54" id="2327" operational="false"/>
        <text class="a" transform="translate(48.36 171.62) scale(0.8 1)">LZ24</text>
        <line class="q" x1="57.51" y1="170.5" x2="73.29" y2="170.47" id="2329" operational="false"/>
        <line class="q" x1="110.96" y1="170.46" x2="129.57" y2="170.44" id="2330" operational="false"/>
        <polygon points="129.57 169.94 129.57 170.94 132.57 170.44 132.57 170.44 129.57 169.94"/>
        <text class="a" transform="translate(133.91 171.41) scale(0.8 1)">LF24</text>
        <text class="a" transform="translate(73.39 193.09) scale(0.8 1)">1</text>
        <text class="a" transform="translate(74.62 186.59) scale(0.8 1)">SGMA</text>
        <line class="j" x1="82.81" y1="190.84" x2="81.24" y2="190.84" id="2335" operational="false"/>
        <line class="j" x1="82.03" y1="192.4" x2="82.03" y2="190.84" id="2336" operational="false"/>
        <line class="j" x1="103.96" y1="188.81" x2="81.69" y2="188.82" id="2337" operational="false"/>
        <line class="j" x1="57.51" y1="188.85" x2="55.23" y2="189.81" id="2338" operational="false"/>
        <line class="j" x1="57.51" y1="188.85" x2="55.23" y2="187.88" id="2339" operational="false"/>
        <text class="a" transform="translate(48.36 189.97) scale(0.8 1)">LZ24</text>
        <line class="q" x1="57.51" y1="188.85" x2="73.29" y2="188.82" id="2341" operational="false"/>
        <line class="q" x1="110.96" y1="188.81" x2="129.57" y2="188.78" id="2342" operational="false"/>
        <polygon points="129.57 188.28 129.57 189.28 132.57 188.78 132.57 188.78 129.57 188.28"/>
        <text class="a" transform="translate(133.91 189.75) scale(0.8 1)">LF24</text>
        <circle class="p" cx="80.85" cy="188.82" r="0.84"/>
        <circle class="p" cx="78.33" cy="192.18" r="0.84"/>
        <circle class="p" cx="74.13" cy="188.82" r="0.84"/>
        <line class="j" x1="75.78" y1="190.29" x2="74.77" y2="189.43" id="2348" operational="false"/>
        <line class="j" x1="77.56" y1="191.82" x2="76.55" y2="190.96" id="2349" operational="false"/>
        <line class="m" x1="74.97" y1="188.82" x2="80.02" y2="188.82" id="2350" operational="false"/>
        <polyline class="p" points="47.36 74.83 47.36 102.25 63.48 102.25" id="2351" operational="false"/>
        <polyline class="p" points="46.52 73.97 36.27 73.97 36.27 48.75 79.26 48.75" id="2352" operational="false"/>
        <polyline class="p" points="41.77 62.48 41.77 89.72 63.57 89.72" id="2353" operational="false"/>
        <line class="p" x1="217.55" y1="44.35" x2="229.95" y2="44.35" id="2354" operational="false"/>
        <line class="p" x1="229.95" y1="44.35" x2="269.63" y2="44.35" id="2355" operational="false"/>
        <line class="p" x1="269.63" y1="44.35" x2="307.89" y2="44.35" id="2356" operational="false"/>
        <line class="p" x1="308.6" y1="68.13" x2="270.35" y2="68.13" id="2357" operational="false"/>
        <line class="p" x1="270.35" y1="68.13" x2="230.7" y2="68.12" id="2358" operational="false"/>
        <line class="p" x1="229.98" y1="83.74" x2="269.63" y2="83.74" id="2359" operational="false"/>
        <line class="p" x1="269.63" y1="83.74" x2="307.89" y2="83.74" id="2360" operational="false"/>
        <line class="p" x1="308.6" y1="53.54" x2="270.35" y2="53.54" id="2361" operational="false"/>
        <line class="p" x1="270.35" y1="53.54" x2="230.66" y2="53.54" id="2362" operational="false"/>
        <line class="p" x1="230.66" y1="53.54" x2="217.57" y2="53.54" id="2363" operational="false"/>
        <line class="p" x1="321.79" y1="101.93" x2="308.6" y2="101.91" id="2364" operational="false"/>
        <line class="p" x1="308.6" y1="101.91" x2="270.35" y2="101.91" id="2365" operational="false"/>
        <line class="p" x1="270.35" y1="101.91" x2="230.7" y2="101.91" id="2366" operational="false"/>
        <line class="p" x1="229.98" y1="117.53" x2="269.63" y2="117.53" id="2367" operational="false"/>
        <line class="p" x1="269.63" y1="117.53" x2="307.88" y2="117.53" id="2368" operational="false"/>
        <line class="p" x1="307.88" y1="117.53" x2="321.79" y2="117.53" id="2369" operational="false"/>
        <line class="j" x1="323.29" y1="104.35" x2="321.73" y2="104.35" id="2370" operational="false"/>
        <line class="j" x1="322.51" y1="105.92" x2="322.51" y2="104.35" id="2371" operational="false"/>
        <line class="j" x1="323.35" y1="119.95" x2="321.78" y2="119.95" id="2372" operational="false"/>
        <line class="j" x1="322.57" y1="121.52" x2="322.57" y2="119.95" id="2373" operational="false"/>
        <polyline class="p" points="307.89 44.35 346.84 44.35 346.84 68.13 308.6 68.13" id="2374" operational="false"/>
        <polyline class="p" points="307.89 83.74 340.58 83.74 340.58 53.54 308.6 53.54" id="2375" operational="false"/>
        <polyline class="p" points="329.78 101.93 346.84 101.93 346.84 75.54 308.24 75.54 308.24 68.47" id="2376" operational="false"/>
        <polyline class="p" points="329.78 117.55 340.23 117.55 340.23 92.37 308.24 92.37 308.24 84.09" id="2377" operational="false"/>
        <polyline class="p" points="209.95 113.04 209.95 117.53 229.98 117.53" id="2378" operational="false"/>
        <polyline class="p" points="230.7 101.91 209.95 101.91 209.95 106.39" id="2379" operational="false"/>
        <polyline class="p" points="209.95 79.25 209.95 83.74 229.98 83.74" id="2380" operational="false"/>
        <polyline class="p" points="230.7 68.12 209.95 68.12 209.95 72.59" id="2381" operational="false"/>
        <polygon points="106.96 176.46 107.91 176.46 107.43 179.31 107.43 179.31 106.96 176.46"/>
        <polygon points="108.03 196.6 107.08 196.6 107.55 193.75 107.55 193.75 108.03 196.6"/>
        <polygon points="49.05 66.71 48.1 66.71 48.57 63.85 48.57 63.85 49.05 66.71"/>
        <polygon points="54.62 79.27 53.67 79.27 54.15 76.41 54.15 76.41 54.62 79.27"/>
        <polygon points="71.55 94.98 70.6 94.98 71.08 92.13 71.08 92.13 71.55 94.98"/>
        <polygon points="71.55 107.44 70.6 107.44 71.08 104.59 71.08 104.59 71.55 107.44"/>
        <polygon points="70.54 77.53 71.5 77.53 71.02 80.38 71.02 80.38 70.54 77.53"/>
        <polygon points="70.71 64.83 71.66 64.83 71.18 67.68 71.18 67.68 70.71 64.83"/>
        <polygon points="202.41 109.46 203.36 109.46 202.88 112.31 202.88 112.31 202.41 109.46"/>
        <polygon points="203.46 77.33 202.51 77.33 202.98 74.48 202.98 74.48 203.46 77.33"/>
        <rect class="r" x="0.35" y="0.35" width="372.02" height="224.16"/>
    </svg>